<?xml version="1.0" encoding="UTF-8" standalone="no"?>
<!-- Created with Inkscape (http://www.inkscape.org/) -->

<svg
   width="210mm"
   height="297mm"
   viewBox="0 0 210 297"
   version="1.1"
   id="svg1"
   inkscape:export-filename="logo.png"
   inkscape:export-xdpi="96"
   inkscape:export-ydpi="96"
   inkscape:version="1.3.2 (091e20e, 2023-11-25, custom)"
   sodipodi:docname="logo.svg"
   xmlns:inkscape="http://www.inkscape.org/namespaces/inkscape"
   xmlns:sodipodi="http://sodipodi.sourceforge.net/DTD/sodipodi-0.dtd"
   xmlns="http://www.w3.org/2000/svg"
   xmlns:svg="http://www.w3.org/2000/svg">
  <sodipodi:namedview
     id="namedview1"
     pagecolor="#ffffff"
     bordercolor="#000000"
     borderopacity="0.25"
     inkscape:showpageshadow="2"
     inkscape:pageopacity="0.0"
     inkscape:pagecheckerboard="0"
     inkscape:deskcolor="#d1d1d1"
     inkscape:document-units="mm"
     inkscape:zoom="0.66903058"
     inkscape:cx="396.84284"
     inkscape:cy="561.25984"
     inkscape:window-width="1920"
     inkscape:window-height="986"
     inkscape:window-x="-11"
     inkscape:window-y="-11"
     inkscape:window-maximized="1"
     inkscape:current-layer="layer1" />
  <defs
     id="defs1" />
  <g
     inkscape:label="Слой 1"
     inkscape:groupmode="layer"
     id="layer1">
    <g
       id="g8"
       transform="matrix(0.26458333,0,0,0.26458333,80.840024,113.60441)">
      <path
         d="m 125.105,66 c 5.194,0 9.897,1.5649 14.112,4.5962 l 0.783,0.5854 -2.352,2.5429 -0.685,-0.4896 c -3.627,-2.4445 -7.643,-3.714 -11.858,-3.714 -7.545,0 -14.208,3.9096 -17.833,10.1664 -1.862,3.2255 -2.744,6.6467 -2.744,10.3619 0,7.5277 3.821,13.8828 10.387,17.6948 3.233,1.858 6.663,2.835 10.19,2.835 3.037,0 6.076,-0.783 9.309,-2.346 l 0.98,-0.489 v -7.333 h -8.132 v -2.9313 h 11.27 v 12.2193 l -0.689,0.587 c -3.624,2.443 -7.936,3.714 -12.738,3.714 -8.623,0 -16.559,-4.594 -20.872,-12.024 C 102.078,98.3593 101,94.3513 101,90.0492 101,81.4465 105.606,73.529 113.053,69.2268 116.775,67.0766 120.793,66 125.105,66 Z"
         fill="#404042"
         fill-rule="evenodd"
         id="path1" />
      <path
         d="m 35.6138,104 c 2.5548,2.062 8.0182,5.766 14.3174,5.766 L 52,109.59 v 3.464 l -2.4789,0.266 c -5.2078,0 -9.1737,-1.351 -13.6886,-4.663 l -2.1578,3.051 c 5.1332,3.765 9.8721,5.372 15.8464,5.372 L 52,116.837 v 3.073 L 51.1615,120 C 38.3913,120 31.4408,114.706 29,112.376 Z"
         fill="#404042"
         fill-rule="evenodd"
         id="path2" />
      <path
         d="m 52,8 v 97.65 l -2.0878,0.343 c -7.0964,0 -13.3398,-5.984 -13.4006,-6.0428 l -1.4677,-1.4334 -11.1172,13.9442 0.9335,1.176 c 0.3266,0.412 8.2189,10.099 26.2936,10.099 L 52,123.645 V 171 l -5.4661,-2.655 C 18.816,153.16 0,123.546 0,89.4994 0,55.4532 18.816,25.8392 46.5339,10.6553 Z"
         fill="#404042"
         fill-rule="evenodd"
         id="path3" />
      <path
         d="m 121,73 v 33 l -0.641,-0.085 c -4.216,-1.156 -7.808,-3.969 -10.047,-7.9891 -1.54,-2.6315 -2.312,-5.4566 -2.312,-8.3798 0,-6.2365 3.178,-11.693 8.475,-14.8099 1.299,-0.7309 2.647,-1.2916 4.031,-1.6696 z"
         fill="#404042"
         fill-rule="evenodd"
         id="path4" />
      <path
         d="M 66.4033,60 H 70 v 36.3739 c 0,2.7892 -1.2838,7.0911 -4.8886,10.8021 -2.0237,2.083 -5.2918,4.466 -10.2074,5.527 L 52,113 v -3.437 l 1.3599,-0.111 c 7.8319,-1.312 13.0434,-7.05 13.0434,-14.844 z"
         fill="#404042"
         fill-rule="evenodd"
         id="path5" />
      <path
         d="m 121,59 v 3.3832 l -3.359,0.4425 c -6.753,1.8344 -12.464,6.3031 -16.094,12.7025 -2.3725,4.3163 -3.6059,9.0238 -3.6059,14.0265 0,9.8089 5.1239,18.8333 13.4759,23.8343 2.04,1.226 4.175,2.158 6.393,2.783 l 3.19,0.437 V 120 l -0.237,-0.016 C 111.7,118.727 103.636,113.181 98.986,104.856 96.3291,100.147 95,95.0473 95,89.5547 c 0,-10.9851 5.693,-21.1853 14.898,-26.6779 3.416,-2.0608 7.045,-3.3479 10.888,-3.8627 z"
         fill="#404042"
         fill-rule="evenodd"
         id="path6" />
      <path
         d="m 89.2169,0 c 9.2824,0 18.2351,1.40873 26.6561,4.02372 L 121,5.8973 v 49.6691 l -0.761,0.0475 c -10.479,1.3273 -19.412,7.2299 -24.896,16.7265 -3.1337,5.3781 -4.6999,11.1461 -4.6999,17.2081 0,11.6355 6.6593,23.2705 17.2349,29.4295 3.893,2.347 8.061,3.814 12.463,4.401 l 0.659,0.043 v 49.68 l -5.127,1.874 C 107.452,177.591 98.4993,179 89.2169,179 76.8402,179 65.0495,176.495 54.3253,171.967 L 52,170.848 v -47.267 l 5.8611,-0.623 c 14.6827,-3.24 22.4397,-16.832 22.4397,-26.9973 V 55.9575 h -3.7561 v 40.0032 c 0,8.7893 -6.757,20.5423 -19.5484,23.3433 L 52,119.831 v -3.065 l 3.1867,-0.306 c 12.3776,-2.482 18.1936,-12.867 18.1936,-20.1825 v -40.32 H 62.3462 v 38.5446 c 0,5.1403 -2.8146,9.0169 -7.3637,10.6329 L 52,105.62 V 8.1516 L 54.3253,7.03325 C 65.0495,2.50444 76.8402,0 89.2169,0 Z"
         fill="#404042"
         fill-rule="evenodd"
         id="path7" />
      <path
         d="m 121,6 3.116,1.13456 C 156.369,20.7044 179,52.4728 179,89.4994 179,126.526 156.369,158.295 124.116,171.866 L 121,173 v -49.62 l 3.829,0.25 c 7.853,0 14.136,-2.343 22.874,-8.301 l 0.687,-0.586 V 86.9128 h -24.935 v 3.5157 h 21.498 v 22.4605 c -8.345,5.37 -13.448,7.225 -20.124,7.225 L 121,119.86 v -3.375 l 3.829,0.504 c 5.79,0 10.308,-1.368 14.727,-4.394 l 2.256,-1.757 V 93.4553 h -18.357 v 9.9597 h 8.148 v 1.563 c -2.062,1.074 -4.319,1.562 -6.774,1.562 L 121,106.038 V 72.9665 l 3.829,-0.5078 c 3.632,0 6.97,1.074 9.818,3.125 l 3.141,2.4418 7.068,-7.6165 -1.278,-1.2694 -2.551,-1.954 c -5.203,-3.4175 -10.602,-5.1747 -16.198,-5.1747 L 121,62.4964 v -3.3683 l 3.829,-0.2423 c 7.756,0 15.119,2.8314 20.714,8.0074 l 1.375,1.3677 2.454,-2.5401 -0.688,-0.7802 c -0.294,-0.2938 -0.589,-0.4892 -0.784,-0.5863 -6.283,-5.7621 -14.531,-8.9842 -23.071,-8.9842 L 121,55.6082 Z"
         fill="#404042"
         fill-rule="evenodd"
         id="path8" />
    </g>
  </g>
</svg>
